<svg width="144" height="42" viewBox="0 0 144 42" fill="none" xmlns="http://www.w3.org/2000/svg">
<path d="M13.5939 26.5164L17.6642 36.564L26.7293 27.2131H19.8561L18.0217 21.9493L13.5939 26.5164Z" fill="white"/>
<path d="M24.602 15.1626L19.4106 20.5163L21.1139 25.4024H34.7753L31.2067 15.1626H24.602Z" fill="white"/>
<path d="M2 15.1626L5.56859 25.4024H12.1733L17.36 20.0525L15.6557 15.1626H2Z" fill="white"/>
<path d="M19.1111 4L10.0478 13.351H16.9136L18.7498 18.6194L23.1813 14.0476L19.1111 4Z" fill="white"/>
<path d="M80.6438 15.139V12.3779H77.6527V28.1872H80.7093V20.2665C80.7093 16.7822 82.4314 15.1721 84.9995 15.1721H86.2555V12.3789H85.2382C83.6453 12.3789 81.7809 12.7073 80.6438 15.14V15.139Z" fill="white"/>
<path d="M103.295 11.915C99.3637 11.915 95.8232 15.2951 95.8232 20.2484C95.8232 25.5974 99.4948 28.6812 103.685 28.6812C107.295 28.6812 109.785 26.5174 110.681 23.7592H107.647C106.945 25.0417 105.727 25.958 103.685 25.958C101.054 25.958 99.0399 23.9892 98.9744 21.1675H110.734C110.768 20.9706 110.8 20.5769 110.8 20.1831C110.8 15.2611 108.103 11.915 103.295 11.915ZM99.0708 18.6753C99.2009 16.6411 100.76 14.6392 103.326 14.6392C106.088 14.6392 107.55 16.4111 107.615 18.6753H99.0708Z" fill="white"/>
<path d="M128.311 12.412H125.401V28.1862H128.311V12.412Z" fill="white"/>
<path d="M126.84 6.52441C125.665 6.52441 124.713 7.48516 124.713 8.70242C124.713 9.91968 125.665 10.8492 126.84 10.8492C128.014 10.8492 129 9.8875 129 8.70242C129 7.51734 128.047 6.52441 126.84 6.52441Z" fill="white"/>
<path d="M90.6187 7.38196H87.5629V25.1695C87.5629 26.8354 88.8985 28.1861 90.5457 28.1861H95.0829V25.3929H90.6177V15.1711H95.0829V12.3778H90.6177V7.3829L90.6187 7.38196Z" fill="white"/>
<path d="M53.717 25.8274C51.1947 25.8274 48.9495 23.8633 48.9495 20.2816C48.9495 16.6998 51.22 14.7698 53.6852 14.7698C55.6749 14.7698 56.8102 15.7798 57.4194 16.9355H60.6249C59.9754 14.5398 57.8359 11.915 53.6852 11.915C49.2424 11.915 45.8367 15.3605 45.8367 20.2816C45.8367 25.2027 49.1769 28.6813 53.717 28.6813C57.7704 28.6813 60.0081 26.0233 60.7531 23.7592H57.5589C57.0731 24.6111 56.0034 25.8265 53.7161 25.8265L53.717 25.8274Z" fill="white"/>
<path d="M119.638 19.1011L117.113 18.5436C115.915 18.2814 115.331 17.5923 115.331 16.6401C115.331 15.5573 116.274 14.5407 117.829 14.5407C119.997 14.5407 120.745 15.9122 120.903 16.8342H123.736C123.349 13.8554 121.314 11.9159 117.829 11.9159C114.786 11.9159 112.385 14.2132 112.385 16.9033C112.385 19.1352 113.843 20.8078 116.271 21.3331L118.926 21.9238C120.222 22.2191 120.934 22.9735 120.934 23.9579C120.934 25.0739 119.995 26.0573 118.278 26.0573C116.38 26.0573 115.206 25.0805 114.793 23.7601H111.766C112.344 27.1108 114.669 28.6821 118.246 28.6821C122.1 28.6821 123.945 26.0242 123.945 23.7932C123.945 21.5622 122.457 19.724 119.638 19.1011Z" fill="white"/>
<path d="M68.727 11.9159C65.0283 11.9159 62.624 14.3514 62.3526 16.9354H65.413C65.8322 15.5137 66.9712 14.5407 68.7916 14.5407C71.1585 14.5407 72.1627 15.8204 72.1627 17.3623C72.1627 17.9199 71.9034 18.4121 70.9629 18.5436L66.7494 19.1674C64.0587 19.5602 62.0156 21.1353 62.0156 23.9569C62.0156 26.4511 64.0587 28.6821 67.2361 28.6821C70.0241 28.6821 71.5796 27.1733 72.2619 26.0573V28.1899H75.2118V17.6908C75.2118 14.6069 73.3962 11.9159 68.727 11.9159ZM72.1636 21.4315C72.1636 24.876 70.1533 26.0905 67.6572 26.0905C66.1018 26.0905 65.1275 24.9745 65.1275 23.7932C65.1275 22.3828 66.1018 21.6284 67.398 21.4315L72.1627 20.7093L72.1636 21.4315Z" fill="white"/>
</svg>
